<?xml version="1.0"?>
<svg xmlns="http://www.w3.org/2000/svg" id="filled_outline" data-name="filled outline" viewBox="0 0 512 512" width="512" height="512"><path d="M288,344h20.10541A105.29813,105.29813,0,0,0,408,272.00007L408,272l8.4459,4.223A129.44258,129.44258,0,0,1,488,391.99992V392l-29.92455-17.95473A8,8,0,0,0,446.06833,379.59L440,416l-32.85209-26.28167a8,8,0,0,0-11.8575,2.131L376,424l-25.47759-25.47759a8,8,0,0,0-12.05686.85685L329.6,411.2A32,32,0,0,1,304,424H288Z" style="fill:#62798c"/><path d="M224,344H203.89459A105.29813,105.29813,0,0,1,104,272.00007L104,272l-8.4459,4.223A129.44258,129.44258,0,0,0,24,391.99992V392l29.92455-17.95473A8,8,0,0,1,65.93167,379.59L72,416l32.85209-26.28167a8,8,0,0,1,11.8575,2.131L136,424l25.47759-25.47759a8,8,0,0,1,12.05686.85685L182.4,411.2A32,32,0,0,0,208,424h16Z" style="fill:#62798c"/><polygon points="384 232 280 306.286 280 128 384 128 384 232" style="fill:#3cde8d"/><circle cx="384" cy="128" r="104" style="fill:#67eba0"/><path d="M304,296V264h-8a24,24,0,0,0-24,24v32h8A24,24,0,0,0,304,296Z" style="fill:#556c80"/><path d="M208,296V264h8a24,24,0,0,1,24,24v32h-8A24,24,0,0,1,208,296Z" style="fill:#556c80"/><path d="M312,392.00006V392a101.66547,101.66547,0,0,0-10.73312-45.46621l-10.53376-21.06754A38.83281,38.83281,0,0,0,256,304h0a38.83281,38.83281,0,0,0-34.7331,21.46623l-10.53376,21.06754A101.66547,101.66547,0,0,0,200,392v.00008A55.99994,55.99994,0,0,0,255.99994,448h.00012A55.99994,55.99994,0,0,0,312,392.00006Z" style="fill:#718799"/><rect x="344" y="72" width="48" height="80" rx="23.99998" style="fill:#02c26a"/><circle cx="240" cy="336" r="8"/><circle cx="272" cy="336" r="8"/><path d="M250.34326,346.34326l-16,16,11.31348,11.31348L256,363.31348l10.34326,10.34326,11.31348-11.31348-16-16A8,8,0,0,0,250.34326,346.34326Z"/><path d="M420.02344,269.06787l-8.4458-4.22314a7.99944,7.99944,0,0,0-11.167,4.62548A97.17454,97.17454,0,0,1,308.10547,336h-3.16132l-6.8233-13.646A32.17855,32.17855,0,0,0,312,296V264a7.99977,7.99977,0,0,0-8-8h-8a32.036,32.036,0,0,0-32,32v8.67822a47.52144,47.52144,0,0,0-16,0V288a32.036,32.036,0,0,0-32-32h-8a7.99977,7.99977,0,0,0-8,8v32a32.17823,32.17823,0,0,0,13.87921,26.35388L207.05585,336h-3.16132a97.17454,97.17454,0,0,1-92.30517-66.52979,7.99944,7.99944,0,0,0-11.167-4.62548l-8.4458,4.22314A137.44129,137.44129,0,0,0,16,392a8,8,0,0,0,12.11572,6.85986l29.92481-17.95459,6.06836,36.41016a8.00014,8.00014,0,0,0,12.88867,4.93164l32.85205-26.28223,19.29053,32.15088a7.99953,7.99953,0,0,0,12.5166,1.541l25.478-25.47754L176,416.00049a40.20375,40.20375,0,0,0,30.04742,15.9414,64.51341,64.51341,0,0,0,14.41138,13.2522L207.478,471.15527c-.15418.30835-.31989.60791-.49134.90284l-8.33044-12.49561A7.99943,7.99943,0,0,0,192,456H176v16h11.71875l5.33331,8H176v16h17.167a31.8258,31.8258,0,0,0,28.62158-17.68945l12.974-25.94776a63.82058,63.82058,0,0,0,42.47486,0l12.974,25.94776A31.8258,31.8258,0,0,0,318.833,496H336V480H318.94794l5.33331-8H336V456H320a7.99943,7.99943,0,0,0-6.65625,3.5625l-8.33044,12.49561c-.17145-.29493-.33716-.59449-.49134-.90284L291.5412,445.19409a64.51341,64.51341,0,0,0,14.41138-13.2522A40.2027,40.2027,0,0,0,336,416l8.86572-11.8208,25.47754,25.47754a7.99971,7.99971,0,0,0,12.5166-1.541l19.29053-32.15039,32.852,26.28174a8.00014,8.00014,0,0,0,12.88867-4.93164l6.06836-36.41016,29.92481,17.95459A8,8,0,0,0,496,392a137.44129,137.44129,0,0,0-75.97656-122.93213ZM280,288a16.01833,16.01833,0,0,1,16-16v24a16.08772,16.08772,0,0,1-7.2124,13.35632A46.37866,46.37866,0,0,0,280,302.57251Zm-64-16a16.01833,16.01833,0,0,1,16,16v14.57251a46.37866,46.37866,0,0,0-8.7876,6.78381A16.08772,16.08772,0,0,1,216,296ZM49.80811,367.18555,32.88672,377.33838a121.44812,121.44812,0,0,1,66.2456-93.96l.52735-.26367a113.13188,113.13188,0,0,0,13.92346,24.01611A163.07664,163.07664,0,0,0,73.1582,375.68091a15.99251,15.99251,0,0,0-23.35009-8.49536Zm62.87158,13.03222a16.00076,16.00076,0,0,0-12.8252,3.25342l-15.11859,12.095,1.25629-5.65356a147.14454,147.14454,0,0,1,38.16534-70.70239,113.21394,113.21394,0,0,0,24.8288,18.61791,129.11071,129.11071,0,0,0-20.39874,58.26856l-5.01825-8.36377A15.99678,15.99678,0,0,0,112.67969,380.21777Zm76.12011,26.18262-8.86523-11.82129a16.00047,16.00047,0,0,0-24.11377-1.71338l-11.7511,11.7511a112.83815,112.83815,0,0,1,19.587-59.98376,113.19187,113.19187,0,0,0,35.94049,7.286A110.29593,110.29593,0,0,0,192,392a63.70449,63.70449,0,0,0,3.34119,20.3645A23.93053,23.93053,0,0,1,188.7998,406.40039ZM256,440a48.05436,48.05436,0,0,1-48-48,94.149,94.149,0,0,1,9.88818-41.88867L228.42236,329.044a30.83271,30.83271,0,0,1,55.15528,0l10.53418,21.06738A94.149,94.149,0,0,1,304,392,48.05436,48.05436,0,0,1,256,440Zm87.73145-51.78027a15.99044,15.99044,0,0,0-11.666,6.35986L323.2002,406.3999a23.92932,23.92932,0,0,1-6.54133,5.96436A63.70216,63.70216,0,0,0,320,392a110.29593,110.29593,0,0,0-7.59717-40.08093,113.19187,113.19187,0,0,0,35.94049-7.286,112.83815,112.83815,0,0,1,19.587,59.98376l-11.7511-11.7511A15.96565,15.96565,0,0,0,343.73145,388.21973Zm55.58886-8.002a15.99588,15.99588,0,0,0-10.88965,7.51563l-5.01825,8.36352a129.111,129.111,0,0,0-20.39874-58.2688,113.21394,113.21394,0,0,0,24.8288-18.61791,147.14454,147.14454,0,0,1,38.16534,70.70239l1.25635,5.65368L412.145,383.47119A15.99647,15.99647,0,0,0,399.32031,380.21777Zm62.87158-13.03222a15.99251,15.99251,0,0,0-23.35009,8.49536,163.07664,163.07664,0,0,0-40.42493-68.55,113.13188,113.13188,0,0,0,13.92346-24.01611l.52783.26367a121.44893,121.44893,0,0,1,66.24512,93.96Z"/><path d="M470.15088,56.42773,457.84912,66.6582a96.32311,96.32311,0,0,1,11.34131,17.03907l14.18848-7.395A112.35474,112.35474,0,0,0,470.15088,56.42773Z"/><path d="M475.37109,98.45947a95.92118,95.92118,0,1,1-54.38623-59.07861l6.16895-14.7627A112.0585,112.0585,0,0,0,272,128V248h16V185.63062a112.32716,112.32716,0,0,0,74.06427,52.20666l-38.71417,27.653,9.2998,13.01954,53.96-38.543A112.07829,112.07829,0,0,0,490.59668,93.54053Z"/><path d="M328.40234,156.28418l11.31348,11.31348,12.04205-12.042a31.8027,31.8027,0,0,0,8.357,3.459A43.99407,43.99407,0,0,0,448,156V120H432v36a27.99975,27.99975,0,0,1-55.84442,2.94312,31.80836,31.80836,0,0,0,8.08655-3.38746l12.04205,12.042,11.31348-11.31348-12.04206-12.042A31.80845,31.80845,0,0,0,398.98743,136H416V120H400V104h16V88H398.98743a31.80845,31.80845,0,0,0-3.43183-8.24219l12.04206-12.042L396.28418,56.40234l-12.04205,12.042A31.8053,31.8053,0,0,0,376,65.01257V48H360V65.01257a31.8053,31.8053,0,0,0-8.24213,3.43177l-12.04205-12.042L328.40234,67.71582l12.04206,12.042A31.80845,31.80845,0,0,0,337.01257,88H320v16h16v16H320v16h17.01257a31.80845,31.80845,0,0,0,3.43183,8.24219ZM368,80a16.01833,16.01833,0,0,1,16,16v32a16,16,0,0,1-32,0V96A16.01833,16.01833,0,0,1,368,80Z"/></svg>
