<svg id="Capa_1" enable-background="new 0 0 512 512" height="512" viewBox="0 0 512 512" width="512" xmlns="http://www.w3.org/2000/svg"><g><path d="m512 256c0 11.46-.76 22.75-2.22 33.81-5.78 0-10.46 4.68-10.46 10.46v35.47c-2.1 6.43-4.46 12.75-7.05 18.95-8.28 0-15 6.72-15 15v15.12c-44.37 76.07-126.85 127.19-221.27 127.19-24.65 0-48.49-3.49-71.04-9.99-7.98-10.94-20.1-18.12-33.53-19.88l-20.4-2.67h-.01c-12.31-6.9-23.98-14.78-34.92-23.54 0-12.13-9.83-21.96-21.96-21.96h-2.15c-8.92-9.21-17.14-19.09-24.6-29.55l-4.53-31.64c-1.73-12.14-12.13-21.16-24.4-21.16-11.91-29.54-18.46-61.81-18.46-95.61 0-46.22 12.25-89.57 33.68-127 44.12-77.07 127.16-129 222.32-129s178.2 51.93 222.32 129c21.43 37.43 33.68 80.78 33.68 127z" fill="#464f6e"/><path d="m512 256c0 11.46-.75 22.74-2.22 33.81-5.78 0-10.46 4.68-10.46 10.46v35.47c-2.11 6.43-4.46 12.76-7.05 18.95-8.28 0-15 6.72-15 15v15.12c-44.37 76.07-126.86 127.19-221.27 127.19-24.65 0-48.48-3.48-71.04-9.99-7.98-10.94-20.1-18.12-33.53-19.88l-20.41-2.67c-12.3-6.89-23.98-14.77-34.92-23.54 0-12.13-9.83-21.96-21.96-21.96h-2.16c-8.91-9.21-17.13-19.09-24.59-29.55l-4.53-31.64c-1.73-12.14-12.13-21.16-24.4-21.16-11.91-29.54-18.46-61.81-18.46-95.61 0-46.22 12.25-89.57 33.68-127 44.12 77.07 127.16 129 222.32 129s178.2-51.93 222.32-129c21.43 37.43 33.68 80.78 33.68 127z" fill="#303c5a"/><g><g><g><path d="m269.21 394.24h-78.85l55.75 55.76-23.04 23.04-55.75-55.76v78.85h-.21c-5.45-2.01-10.81-4.21-16.08-6.58-5.54-2.5-10.97-5.17-16.29-8.05v-64.22l-38.64 38.64c-8.5-6.8-16.56-14.14-24.12-21.96l39.72-39.72h-71.2c-2.67-4.15-5.22-8.39-7.65-12.7v-19.88h78.85l-55.76-55.76 23.04-23.03 55.76 55.75v-78.85h32.58v78.85l55.75-55.75 23.04 23.03-55.75 55.76h78.85z" fill="#81f700"/><path d="m269.21 394.24h-78.85l55.75 55.76-23.04 23.04-55.75-55.76v78.85h-.21c-5.45-2.01-10.81-4.21-16.08-6.58v-229.78h16.29v78.85l55.75-55.75 23.04 23.03-55.75 55.76h78.85z" fill="#00cc7f"/><g><path d="m232.993 377.952c0 45.269-36.697 81.966-81.965 81.966-45.269 0-81.966-36.697-81.966-81.966s36.697-81.966 81.966-81.966c45.268-.001 81.965 36.697 81.965 81.966z" fill="#00cc7f"/><path d="m232.993 377.952c0 45.269-36.697 81.966-81.965 81.966v-163.933c45.268 0 81.965 36.698 81.965 81.967z" fill="#029291"/><path d="m208.589 377.952c0 31.791-25.772 57.561-57.561 57.561-31.791 0-57.563-25.77-57.563-57.561s25.772-57.563 57.563-57.563c31.789 0 57.561 25.772 57.561 57.563z" fill="#81f700"/><path d="m208.589 377.952c0 31.791-25.772 57.561-57.561 57.561v-115.124c31.789 0 57.561 25.772 57.561 57.563z" fill="#00cc7f"/><g><path d="m156.433 366.031c-1.788.381-3.603.243-5.404-.118-1.407-.282-2.804-.7-4.171-1.115-3.114-.947-6.401-1.893-9.578-1.183-4.433.99-7.52 4.915-10.055 8.685-2.537 3.769-5.168 7.871-9.363 9.611-3.9 1.618-8.724.684-11.738-2.271-3.312-3.244-3.466-7.722-2.827-12.034.198-1.341.472-2.665.752-3.931 1.256-5.685 4.218-10.874 7.894-15.336 7.314-8.876 17.827-15.834 28.926-18.914 3.305-.916 6.819-1.519 10.159-.806.206.042.412.092.618.146 3.521.932 6.745 3.746 7.192 7.361.292 2.365-.593 4.698-.906 7.058-.626 4.751 3.213 8.431 4.612 12.655 1.41 4.266-1.68 9.25-6.111 10.192z" fill="#00cc7f"/><path d="m176.904 409.282c-2.44 12.073-13.843 17.39-25.876 18.202-8.77.595-17.873-1.203-24.085-4.521-7.448-3.978-15.485-13.02-14.216-22.243 1.441-10.478 13.294-9.692 20.964-6.837 5.66 2.106 11.352 5.054 17.336 4.696.219-.011.438-.029.656-.05 6.077-.608 11.963-4.737 17.836-3.056 1.386.396 2.613 1.11 3.657 2.046 3.109 2.789 4.579 7.552 3.728 11.763z" fill="#00cc7f"/><path d="m165.127 349.139c.842 4.197 3.63 7.684 6.017 11.237s4.516 7.72 3.776 11.936c-.709 4.039-3.923 7.272-4.755 11.287-1.132 5.464 2.879 11.235 8.225 12.833s11.394-.575 15.181-4.673 5.484-9.826 5.485-15.406-1.562-11.053-3.611-16.243c-2.219-5.621-5.091-11.104-9.376-15.365-3.227-3.209-9.661-7.823-14.592-6.89-4.722.895-7.224 6.929-6.35 11.284z" fill="#029291"/><path d="m163.965 388.412c-2.493 2.511-5.892 3.978-9.366 4.655-1.135.221-2.334.362-3.571.422-7.032.345-15.287-1.897-20.134-6.602-2.944-2.859-4.443-9.246-1.616-12.699 2.884-3.521 8.092-5.857 12.548-4.275 2.089.742 3.921 2.185 5.973 2.949.514.191 1.041.339 1.589.423s1.094.1 1.64.07c3.112-.178 6.189-1.918 9.337-1.58 3.519.376 6.405 3.503 6.988 6.993.584 3.489-.895 7.133-3.388 9.644z" fill="#00cc7f"/></g></g></g><g><g><path d="m186.22 259.77c0 4.5-1.824 8.572-4.77 11.52-2.949 2.947-7.021 4.771-11.52 4.771h-37.803c-8.996 0-16.291-7.293-16.291-16.291 0-4.498 1.824-8.572 4.772-11.519 2.949-2.949 7.021-4.772 11.519-4.772h37.803c8.997 0 16.29 7.294 16.29 16.291z" fill="#00cc7f"/></g><g><path d="m186.22 495.71c0 2.23-.45 4.36-1.26 6.3-18.98-5.47-37.05-13.08-53.94-22.55.37-.03.74-.04 1.11-.04h37.8c9 0 16.29 7.29 16.29 16.29z" fill="#00cc7f"/></g></g><g><g><path d="m236.291 319.207-26.731-26.731c-6.362-6.362-6.362-16.677 0-23.039 6.362-6.362 16.677-6.362 23.039 0l26.731 26.731c6.362 6.362 6.362 16.677 0 23.039-6.363 6.362-16.677 6.362-23.039 0z" fill="#029291"/></g></g><g><g><path d="m268.997 412.932c-8.997 0-16.291-7.294-16.291-16.291v-37.803c0-8.997 7.294-16.291 16.291-16.291 8.997 0 16.291 7.294 16.291 16.291v37.803c0 8.997-7.294 16.291-16.291 16.291z" fill="#029291"/></g><g><path d="m49.35 358.84v37.8c0 2.81-.71 5.46-1.96 7.77-.26-.36-.52-.72-.77-1.08-11.27-15.99-20.75-33.32-28.16-51.72 2.66-5.37 8.2-9.06 14.6-9.06 4.5 0 8.57 1.82 11.52 4.77s4.77 7.02 4.77 11.52z" fill="#00cc7f"/></g></g><g><g><path d="m209.56 486.042c-6.362-6.362-6.362-16.677 0-23.039l26.731-26.731c6.362-6.362 16.677-6.362 23.039 0 6.362 6.362 6.362 16.677 0 23.039l-26.731 26.731c-6.362 6.361-16.677 6.361-23.039 0z" fill="#029291"/></g><g><path d="m42.726 319.207c-6.362-6.362-6.362-16.677 0-23.039l26.731-26.731c6.362-6.362 16.677-6.362 23.039 0 6.362 6.362 6.362 16.677 0 23.039l-26.731 26.731c-6.362 6.362-16.677 6.362-23.039 0z" fill="#00cc7f"/></g></g><g fill="#029291"><path d="m151.028 365.913v-37.294c.206.042.412.092.618.146 3.521.932 6.745 3.746 7.192 7.361.292 2.365-.593 4.698-.906 7.058-.626 4.751 3.213 8.431 4.612 12.655 1.41 4.266-1.679 9.251-6.111 10.193-1.788.38-3.604.242-5.405-.119z"/><path d="m154.599 393.067c-1.135.221-2.334.362-3.571.422v-20.134c3.112-.178 6.189-1.918 9.337-1.58 3.519.376 6.405 3.503 6.988 6.993.584 3.49-.895 7.134-3.388 9.645-2.493 2.51-5.892 3.977-9.366 4.654z"/><path d="m176.904 409.282c-2.44 12.073-13.843 17.39-25.876 18.202v-28.905c.219-.011.438-.029.656-.05 6.077-.608 11.963-4.737 17.836-3.056 1.386.396 2.613 1.11 3.657 2.046 3.108 2.789 4.578 7.552 3.727 11.763z"/><path d="m186.22 495.71c0 2.23-.45 4.36-1.26 6.3-11.67-3.36-23-7.54-33.93-12.46v-10.13h18.9c9 0 16.29 7.29 16.29 16.29z"/><path d="m169.929 276.06h-18.901v-32.582h18.901c8.998 0 16.291 7.294 16.291 16.291 0 4.5-1.824 8.572-4.77 11.52-2.949 2.948-7.021 4.771-11.521 4.771z"/></g></g><g><g><path d="m311.784 149.151h-59.716l42.226 42.226-17.448 17.448-42.225-42.226v59.715h-24.675v-59.715l-42.226 42.226-17.448-17.448 42.226-42.226h-59.717v-24.675h59.717l-42.226-42.226 17.448-17.448 42.226 42.226v-59.717h24.675v59.717l42.225-42.226 17.448 17.448-42.226 42.226h59.716z" fill="#81f700"/><path d="m311.784 149.151h-59.716l42.226 42.226-17.448 17.448-42.225-42.226v59.715h-12.338v-179.003h12.338v59.717l42.225-42.226 17.448 17.448-42.226 42.226h59.716z" fill="#00cc7f"/><g><path d="m284.357 136.813c0 34.283-27.792 62.075-62.074 62.075-34.283 0-62.075-27.792-62.075-62.075s27.792-62.075 62.075-62.075c34.282 0 62.074 27.792 62.074 62.075z" fill="#00cc7f"/><path d="m284.357 136.813c0 34.283-27.792 62.075-62.074 62.075v-124.15c34.282 0 62.074 27.792 62.074 62.075z" fill="#029291"/><path d="m265.876 136.813c0 24.076-19.518 43.592-43.592 43.592-24.076 0-43.593-19.516-43.593-43.592s19.518-43.594 43.593-43.594c24.074.001 43.592 19.518 43.592 43.594z" fill="#81f700"/><path d="m265.876 136.813c0 24.076-19.518 43.592-43.592 43.592v-87.185c24.074 0 43.592 19.517 43.592 43.593z" fill="#00cc7f"/><g><path d="m226.376 127.785c-1.354.288-2.729.184-4.093-.09-1.065-.214-2.124-.53-3.159-.845-2.358-.717-4.848-1.434-7.254-.896-3.357.75-5.695 3.722-7.615 6.577-1.921 2.854-3.914 5.961-7.091 7.279-2.954 1.225-6.607.518-8.889-1.72-2.508-2.456-2.625-5.848-2.141-9.114.15-1.015.357-2.018.57-2.977.951-4.305 3.194-8.235 5.978-11.614 5.539-6.722 13.501-11.991 21.907-14.324 2.503-.694 5.165-1.15 7.693-.61.156.032.312.07.468.11 2.666.706 5.108 2.837 5.447 5.575.221 1.791-.449 3.558-.686 5.345-.474 3.598 2.433 6.385 3.492 9.584 1.069 3.232-1.271 7.007-4.627 7.72z" fill="#00cc7f"/><path d="m241.88 160.54c-1.847 9.143-10.484 13.17-19.596 13.785-6.641.451-13.536-.911-18.24-3.424-5.641-3.012-11.727-9.86-10.766-16.845 1.091-7.935 10.068-7.34 15.877-5.178 4.287 1.595 8.597 3.828 13.129 3.556.166-.009.332-.022.497-.038 4.602-.46 9.06-3.587 13.507-2.314 1.05.3 1.979.841 2.769 1.549 2.354 2.113 3.467 5.72 2.823 8.909z" fill="#00cc7f"/><path d="m232.961 114.993c.638 3.178 2.749 5.819 4.557 8.51s3.42 5.846 2.86 9.039c-.537 3.059-2.971 5.507-3.601 8.548-.857 4.138 2.18 8.508 6.229 9.719 4.049 1.21 8.629-.436 11.497-3.539 2.868-3.104 4.153-7.441 4.154-11.667s-1.183-8.371-2.735-12.301c-1.681-4.257-3.856-8.409-7.101-11.636-2.444-2.43-7.316-5.925-11.051-5.218-3.577.677-5.471 5.246-4.809 8.545z" fill="#029291"/><path d="m232.081 144.735c-1.888 1.902-4.462 3.012-7.093 3.526-.859.167-1.768.274-2.704.319-5.325.261-11.577-1.436-15.248-5-2.229-2.165-3.365-7.002-1.224-9.617 2.184-2.666 6.128-4.435 9.503-3.237 1.582.562 2.97 1.655 4.524 2.233.389.145.788.257 1.203.32.415.064.829.076 1.242.053 2.357-.135 4.687-1.452 7.071-1.197 2.665.285 4.85 2.653 5.292 5.296s-.678 5.402-2.566 7.304z" fill="#00cc7f"/></g></g></g><g><g><path d="m248.935 47.311c0 3.408-1.381 6.492-3.613 8.725-2.233 2.232-5.317 3.613-8.725 3.613h-28.629c-6.813 0-12.337-5.523-12.337-12.337 0-3.407 1.381-6.492 3.614-8.723 2.233-2.233 5.317-3.614 8.723-3.614h28.629c6.815-.002 12.338 5.523 12.338 12.336z" fill="#00cc7f"/></g><g><path d="m248.935 225.994c0 3.407-1.381 6.492-3.613 8.723-2.233 2.233-5.317 3.614-8.725 3.614h-28.629c-6.813 0-12.337-5.524-12.337-12.337 0-3.407 1.381-6.492 3.614-8.723 2.233-2.233 5.317-3.614 8.723-3.614h28.629c6.815-.001 12.338 5.524 12.338 12.337z" fill="#00cc7f"/></g></g><g><g><path d="m286.855 92.325-20.244-20.244c-4.818-4.818-4.818-12.63 0-17.448 4.818-4.818 12.63-4.818 17.448 0l20.244 20.244c4.818 4.818 4.818 12.63 0 17.448-4.819 4.818-12.63 4.818-17.448 0z" fill="#029291"/></g><g><path d="m160.507 218.672-20.244-20.244c-4.818-4.818-4.818-12.63 0-17.448 4.818-4.818 12.63-4.818 17.448 0l20.244 20.244c4.818 4.818 4.818 12.63 0 17.448-4.818 4.818-12.63 4.818-17.448 0z" fill="#00cc7f"/></g></g><g><g><path d="m311.624 163.305c-6.814 0-12.338-5.524-12.338-12.337v-28.629c0-6.814 5.524-12.338 12.338-12.338 6.814 0 12.337 5.524 12.337 12.338v28.629c0 6.813-5.523 12.337-12.337 12.337z" fill="#029291"/></g><g><path d="m132.942 163.305c-6.814 0-12.337-5.524-12.337-12.337v-28.629c0-6.814 5.524-12.338 12.337-12.338 6.814 0 12.337 5.524 12.337 12.338v28.629c0 6.813-5.524 12.337-12.337 12.337z" fill="#00cc7f"/></g></g><g><g><path d="m266.611 218.672c-4.818-4.818-4.818-12.63 0-17.448l20.244-20.244c4.818-4.818 12.63-4.818 17.448 0 4.818 4.818 4.818 12.63 0 17.448l-20.244 20.244c-4.818 4.818-12.63 4.818-17.448 0z" fill="#029291"/></g><g><path d="m140.263 92.325c-4.818-4.818-4.818-12.63 0-17.448l20.244-20.244c4.818-4.818 12.63-4.818 17.448 0 4.818 4.818 4.818 12.63 0 17.448l-20.244 20.244c-4.818 4.818-12.63 4.818-17.448 0z" fill="#00cc7f"/></g></g><g fill="#029291"><path d="m222.283 127.696v-28.244c.156.032.312.07.468.11 2.666.706 5.108 2.837 5.447 5.575.221 1.791-.449 3.558-.686 5.345-.474 3.598 2.433 6.385 3.492 9.584 1.068 3.231-1.272 7.006-4.628 7.719-1.354.289-2.729.185-4.093-.089z"/><path d="m224.988 148.261c-.859.167-1.768.274-2.704.319v-15.248c2.357-.135 4.687-1.452 7.071-1.197 2.665.285 4.85 2.653 5.292 5.296s-.678 5.403-2.566 7.304c-1.888 1.902-4.462 3.012-7.093 3.526z"/><path d="m241.88 160.54c-1.847 9.143-10.484 13.17-19.596 13.785v-21.891c.166-.009.332-.022.497-.038 4.602-.46 9.06-3.587 13.507-2.314 1.05.3 1.979.841 2.769 1.549 2.354 2.113 3.467 5.72 2.823 8.909z"/><path d="m248.935 225.994c0 3.407-1.381 6.492-3.613 8.723-2.233 2.233-5.317 3.614-8.725 3.614h-14.314v-24.675h14.314c6.815 0 12.338 5.525 12.338 12.338z"/><path d="m236.597 59.648h-14.314v-24.675h14.314c6.814 0 12.337 5.524 12.337 12.338 0 3.408-1.381 6.492-3.613 8.725-2.232 2.231-5.316 3.612-8.724 3.612z"/></g></g><g><g><path d="m498.665 321.617h-59.717l42.226 42.226-17.448 17.448-42.225-42.226v59.716h-24.675v-59.716l-42.226 42.226-17.448-17.448 42.226-42.226h-59.717v-24.675h59.717l-42.226-42.226 17.448-17.448 42.226 42.226v-59.717h24.675v59.717l42.225-42.226 17.448 17.448-42.226 42.226h59.717z" fill="#81f700"/><path d="m498.665 321.617h-59.717l42.226 42.226-17.448 17.448-42.225-42.226v59.716h-12.337v-179.004h12.337v59.717l42.225-42.226 17.448 17.448-42.226 42.226h59.717z" fill="#00cc7f"/><g><path d="m471.238 309.28c0 34.283-27.792 62.075-62.074 62.075-34.283 0-62.075-27.792-62.075-62.075s27.792-62.075 62.075-62.075c34.282-.001 62.074 27.791 62.074 62.075z" fill="#00cc7f"/><path d="m471.238 309.28c0 34.283-27.792 62.075-62.074 62.075v-124.15c34.282-.001 62.074 27.791 62.074 62.075z" fill="#029291"/><path d="m452.756 309.28c0 24.076-19.518 43.592-43.592 43.592-24.076 0-43.594-19.517-43.594-43.592 0-24.076 19.518-43.594 43.594-43.594 24.074 0 43.592 19.518 43.592 43.594z" fill="#81f700"/><path d="m452.756 309.28c0 24.076-19.518 43.592-43.592 43.592v-87.186c24.074 0 43.592 19.518 43.592 43.594z" fill="#00cc7f"/><g><path d="m413.257 300.252c-1.354.288-2.729.184-4.093-.09-1.066-.214-2.124-.53-3.159-.845-2.358-.717-4.848-1.434-7.254-.896-3.357.75-5.695 3.722-7.615 6.578-1.921 2.854-3.914 5.961-7.091 7.278-2.954 1.225-6.607.518-8.889-1.72-2.508-2.456-2.625-5.848-2.141-9.114.15-1.015.357-2.018.57-2.977.951-4.305 3.194-8.235 5.978-11.614 5.539-6.722 13.501-11.991 21.907-14.324 2.503-.694 5.165-1.15 7.693-.61.156.032.312.07.468.111 2.666.706 5.108 2.837 5.447 5.574.221 1.791-.449 3.558-.686 5.345-.474 3.598 2.433 6.385 3.493 9.584 1.068 3.232-1.272 7.007-4.628 7.72z" fill="#00cc7f"/><path d="m428.76 333.007c-1.848 9.143-10.484 13.17-19.596 13.785-6.641.451-13.536-.911-18.24-3.424-5.641-3.013-11.727-9.86-10.766-16.845 1.091-7.935 10.068-7.34 15.877-5.178 4.287 1.595 8.597 3.828 13.129 3.556.166-.009.332-.022.497-.038 4.602-.46 9.06-3.587 13.507-2.314 1.05.3 1.979.841 2.77 1.549 2.353 2.113 3.467 5.719 2.822 8.909z" fill="#00cc7f"/><path d="m419.841 287.459c.638 3.178 2.749 5.819 4.557 8.51s3.42 5.846 2.86 9.039c-.537 3.059-2.971 5.507-3.601 8.548-.858 4.138 2.18 8.509 6.229 9.719s8.629-.436 11.497-3.539 4.153-7.441 4.154-11.667-1.183-8.371-2.735-12.301c-1.681-4.257-3.855-8.409-7.101-11.636-2.444-2.43-7.316-5.925-11.051-5.218-3.577.677-5.471 5.247-4.809 8.545z" fill="#029291"/><path d="m418.961 317.201c-1.888 1.902-4.462 3.013-7.093 3.526-.859.167-1.768.274-2.704.319-5.325.261-11.577-1.436-15.248-5-2.229-2.165-3.365-7.002-1.224-9.617 2.184-2.666 6.128-4.435 9.503-3.237 1.582.562 2.97 1.655 4.524 2.233.389.145.788.257 1.203.32.415.064.829.076 1.242.053 2.357-.135 4.687-1.452 7.071-1.197 2.665.285 4.85 2.653 5.292 5.296s-.678 5.403-2.566 7.304z" fill="#00cc7f"/></g></g></g><g><g><path d="m435.815 219.777c0 3.408-1.381 6.492-3.613 8.725-2.233 2.232-5.317 3.613-8.725 3.613h-28.629c-6.813 0-12.337-5.523-12.337-12.337 0-3.407 1.381-6.492 3.614-8.723 2.233-2.233 5.317-3.614 8.723-3.614h28.629c6.815-.001 12.338 5.523 12.338 12.336z" fill="#00cc7f"/></g><g><path d="m435.815 398.46c0 3.407-1.381 6.491-3.613 8.723-2.233 2.233-5.317 3.614-8.725 3.614h-28.629c-6.813 0-12.337-5.524-12.337-12.337 0-3.407 1.381-6.492 3.614-8.723 2.233-2.233 5.317-3.614 8.723-3.614h28.629c6.815 0 12.338 5.524 12.338 12.337z" fill="#00cc7f"/></g></g><g><g><path d="m473.735 264.791-20.244-20.244c-4.818-4.818-4.818-12.63 0-17.448 4.818-4.818 12.63-4.818 17.448 0l20.244 20.244c4.818 4.818 4.818 12.63 0 17.448-4.818 4.818-12.63 4.818-17.448 0z" fill="#029291"/></g><g><path d="m347.387 391.139-20.244-20.244c-4.818-4.818-4.818-12.63 0-17.448 4.818-4.818 12.63-4.818 17.448 0l20.244 20.244c4.818 4.818 4.818 12.63 0 17.448-4.818 4.818-12.629 4.818-17.448 0z" fill="#00cc7f"/></g></g><g><g><path d="m509.78 289.81c-2.08 15.81-5.61 31.17-10.46 45.93-.27.02-.54.03-.82.03-6.81 0-12.33-5.52-12.33-12.34v-28.63c0-6.81 5.52-12.33 12.33-12.33 3.41 0 6.5 1.38 8.73 3.61 1.07 1.07 1.94 2.33 2.55 3.73z" fill="#029291"/></g><g><path d="m319.822 335.771c-6.814 0-12.337-5.524-12.337-12.337v-28.629c0-6.814 5.524-12.337 12.337-12.337 6.814 0 12.337 5.524 12.337 12.337v28.629c0 6.813-5.523 12.337-12.337 12.337z" fill="#00cc7f"/></g></g><g><g><path d="m492.27 354.69c-3.99 9.58-8.57 18.86-13.66 27.8-.44.78-.89 1.55-1.34 2.32l-6.33 6.33c-4.82 4.82-12.63 4.82-17.45 0s-4.82-12.63 0-17.45l20.24-20.24c4.82-4.82 12.63-4.82 17.45 0 .39.39.75.81 1.09 1.24z" fill="#029291"/></g><g><path d="m327.144 264.791c-4.818-4.818-4.818-12.63 0-17.448l20.244-20.244c4.818-4.818 12.63-4.818 17.448 0 4.818 4.818 4.818 12.63 0 17.448l-20.244 20.244c-4.819 4.818-12.63 4.818-17.448 0z" fill="#00cc7f"/></g></g><g fill="#029291"><path d="m409.164 300.162v-28.243c.156.032.312.07.468.111 2.666.706 5.108 2.837 5.447 5.574.221 1.791-.449 3.558-.686 5.345-.474 3.598 2.433 6.385 3.493 9.584 1.068 3.231-1.272 7.006-4.628 7.719-1.356.288-2.73.184-4.094-.09z"/><path d="m411.868 320.727c-.859.167-1.768.274-2.704.319v-15.248c2.357-.135 4.687-1.452 7.071-1.197 2.665.285 4.85 2.653 5.292 5.296s-.678 5.403-2.566 7.304c-1.888 1.902-4.462 3.013-7.093 3.526z"/><path d="m428.76 333.007c-1.848 9.143-10.484 13.17-19.596 13.785v-21.891c.166-.009.332-.022.497-.038 4.602-.46 9.06-3.587 13.507-2.314 1.05.3 1.979.841 2.77 1.549 2.353 2.113 3.467 5.719 2.822 8.909z"/><path d="m435.815 398.46c0 3.407-1.381 6.491-3.613 8.723-2.233 2.233-5.317 3.614-8.725 3.614h-14.314v-24.675h14.314c6.815.001 12.338 5.525 12.338 12.338z"/><path d="m423.478 232.115h-14.314v-24.675h14.314c6.814 0 12.337 5.524 12.337 12.337 0 3.408-1.381 6.492-3.613 8.725-2.233 2.232-5.317 3.613-8.724 3.613z"/></g></g></g><path d="m512 256c0 141.38-114.62 256-256 256s-256-114.62-256-256c0-46.22 12.25-89.57 33.68-127 44.12-77.07 127.16-129 222.32-129s178.2 51.93 222.32 129c21.43 37.43 33.68 80.78 33.68 127z" fill="none"/></g></svg>